<!-- office：蓝色源文档页（青色内容行代表正文）经橙色单向箭头转为右侧带右上折角的蓝色 PDF 页——办公文档转 PDF -->
<svg xmlns="http://www.w3.org/2000/svg" viewBox="0 0 48 48" fill="none" stroke-linecap="round" stroke-linejoin="round">
  <g transform="rotate(-2 24 24)" stroke-width="2.5">
    <path stroke="#3B82F6" d="M10.1 15.6 Q14.6 15.2 16.6 15.6 Q19.2 16 19.4 18.6 Q19.7 24 19.4 29.5 Q19.2 32.2 16.5 32.4 Q13.3 32.7 10.1 32.4 Q7.4 32.1 7.1 29.4 Q6.9 24 7.2 18.6 Q7.5 16 10.1 15.6 Z"/>
    <path stroke="#14B8A6" d="M10 20.6 Q13.2 20.2 16.4 20.7 M10 24.1 Q13.2 23.7 16.4 24.2 M10 27.6 Q11.7 27.3 13.4 27.7"/>
    <path stroke="#F97316" d="M22.1 24.1 Q25.3 23.7 28.4 24.1 M25.1 20.6 L28.4 24.1 L25.1 27.6"/>
    <path stroke="#3B82F6" d="M32.2 15.6 Q34.6 15.3 37 15.6 L41.3 19.9 Q41.7 24.5 41.4 29.4 Q41.2 32.3 38.4 32.4 Q35.3 32.6 32.1 32.4 Q29.2 32.2 29.1 29.4 Q28.9 24 29.1 18.6 Q29.3 16 32.2 15.6 Z"/>
    <path stroke="#3B82F6" d="M37 15.7 Q36.9 17.9 37 19.9 Q39.1 19.8 41.3 19.9"/>
  </g>
</svg>
